<svg xmlns="http://www.w3.org/2000/svg" width="1080" height="1080" viewBox="0 0 1080 1080" version="1.1">
	<path d="M 517.357 606.513 C 516.694 608.240, 518.627 611, 520.500 611 C 522.415 611, 524.111 608.452, 523.410 606.627 C 522.623 604.576, 518.132 604.492, 517.357 606.513 M 638.667 605.667 C 637.240 607.093, 638.105 609.899, 640.174 610.555 C 642.638 611.337, 645.225 608.750, 644.324 606.403 C 643.775 604.970, 639.871 604.462, 638.667 605.667 M 694.591 606.623 C 693.613 609.173, 696.526 611.789, 698.769 610.374 C 699.721 609.773, 700.500 608.431, 700.500 607.391 C 700.500 604.818, 695.531 604.173, 694.591 606.623 M 767 611.107 C 767 615.562, 766.777 616.128, 765.250 615.537 C 761.177 613.961, 758.139 613.915, 754.645 615.375 C 744.117 619.774, 747.577 637, 758.989 637 C 761.267 637, 764.002 636.534, 765.066 635.965 C 766.399 635.251, 767 635.251, 767 635.965 C 767 636.534, 768.125 637, 769.500 637 L 772 637 772 621.500 L 772 606 769.500 606 C 767.160 606, 767 606.326, 767 611.107 M 426.476 608.396 C 423.594 609.651, 421 613.487, 421 616.491 C 421 619.439, 425.541 623.082, 430.994 624.510 C 434.016 625.301, 437.074 626.747, 437.790 627.724 C 438.903 629.243, 438.779 629.754, 436.935 631.250 C 434.283 633.402, 431.063 633.471, 426.291 631.477 C 423.378 630.260, 422.484 630.210, 421.838 631.227 C 419.480 634.943, 423.312 637, 432.593 637 C 438.159 637, 439.443 636.648, 441.545 634.545 C 444.598 631.493, 444.864 626.092, 442.086 623.578 C 441.034 622.625, 437.586 621.078, 434.424 620.140 C 431.263 619.201, 428.212 617.698, 427.646 616.800 C 425.210 612.939, 432.092 610.564, 438.574 613.028 C 441.642 614.195, 441.522 614.248, 442.424 611.310 C 443.004 609.421, 442.576 608.976, 439.298 608.066 C 434.292 606.676, 430.181 606.781, 426.476 608.396 M 258 622.500 L 258 637 269 637 L 280 637 280 634.500 C 280 632.028, 279.904 632, 271.440 632 L 262.879 632 263.190 628.250 L 263.500 624.500 270.250 624.204 C 276.180 623.945, 277 623.671, 277 621.954 C 277 620.201, 276.279 620, 270 620 L 263 620 263 616 L 263 612 271 612 C 278.333 612, 279 611.833, 279 610 C 279 608.127, 278.333 608, 268.500 608 L 258 608 258 622.500 M 614 622.500 L 614 637 624.500 637 L 635 637 635 634.500 C 635 632.042, 634.867 632, 627 632 L 619 632 619 620 L 619 608 616.500 608 L 614 608 614 622.500 M 708 612.094 C 708 613.346, 707.197 614.397, 706 614.710 C 704.893 615, 704 616.074, 704 617.117 C 704 618.333, 704.708 619, 706 619 C 707.818 619, 708 619.667, 708 626.345 C 708 634.708, 709.451 637, 714.747 637 C 719.634 637, 721.134 636.120, 719.966 633.937 C 719.385 632.851, 718.346 632.314, 717.472 632.649 C 714.569 633.763, 713 631.037, 713 624.878 C 713 619.014, 713.007 619, 716 619 C 718.333 619, 719 618.556, 719 617 C 719 615.444, 718.333 615, 716 615 C 713.467 615, 713 614.611, 713 612.500 C 713 610.500, 712.500 610, 710.500 610 C 708.629 610, 708 610.527, 708 612.094 M 294 614.984 C 293.175 615.508, 290.813 615.668, 288.750 615.340 L 285 614.744 285 625.872 L 285 637 288 637 L 291 637 291 629.655 C 291 621.727, 292.473 619, 296.757 619 C 300.725 619, 302 621.572, 302 629.571 C 302 636.829, 302.058 637, 304.500 637 C 306.969 637, 307 636.895, 307 628.582 C 307 623.952, 306.720 619.435, 306.379 618.545 C 305.045 615.068, 297.351 612.855, 294 614.984 M 319.388 614.980 C 315.618 616.503, 313 620.897, 313 625.701 C 313 628.138, 313.463 630.997, 314.030 632.055 C 316.565 636.792, 327.635 638.735, 331.992 635.208 C 333.913 633.652, 334.009 633.253, 332.724 632.186 C 331.618 631.268, 330.526 631.230, 328.411 632.034 C 325.140 633.278, 321.816 632.674, 319.570 630.427 C 316.725 627.582, 317.903 627, 326.500 627 C 334.857 627, 335 626.959, 335 624.547 C 335 616.976, 326.834 611.972, 319.388 614.980 M 349.500 614.945 C 348.400 615.387, 346.038 615.522, 344.250 615.244 L 341 614.738 341 625.869 L 341 637 343.500 637 C 345.929 637, 346 636.800, 346 630 C 346 624.333, 346.381 622.619, 348 621 C 349.100 619.900, 350.675 619, 351.500 619 C 352.433 619, 353 618.056, 353 616.500 C 353 613.838, 352.644 613.680, 349.500 614.945 M 361.314 615.950 C 357.485 618.285, 356 620.810, 356 624.984 C 356 629.221, 358.308 633.364, 361.472 634.805 C 364.735 636.292, 369.491 636.343, 372.151 634.919 C 374.816 633.493, 375.330 634.183, 373.916 637.286 C 372.173 641.110, 366.694 642.132, 361.753 639.555 C 359.228 638.237, 358.918 638.285, 357.922 640.146 C 357.326 641.260, 356.987 642.297, 357.169 642.450 C 359.127 644.100, 362.907 645, 367.878 645 C 372.788 645, 374.402 644.558, 376.694 642.589 C 379.453 640.219, 379.506 639.965, 379.832 627.589 L 380.163 615 377.582 615 C 376.162 615, 375 615.423, 375 615.941 C 375 616.458, 373.762 616.236, 372.250 615.447 C 368.493 613.487, 365.097 613.643, 361.314 615.950 M 453.321 615.560 C 450.026 617.240, 447 622.215, 447 625.951 C 447 628.930, 449.553 633.573, 452.217 635.439 C 457.341 639.028, 472.140 635.851, 467.651 632.125 C 466.408 631.093, 465.422 631.079, 462.722 632.056 C 459.983 633.046, 458.800 633.014, 456.436 631.880 C 454.835 631.113, 453.373 629.701, 453.189 628.742 C 452.891 627.195, 453.814 627, 461.427 627 L 470 627 470 624.016 C 470 616.799, 460.417 611.940, 453.321 615.560 M 484 614.984 C 483.175 615.508, 480.813 615.668, 478.750 615.340 L 475 614.744 475 625.872 L 475 637 477.958 637 L 480.916 637 481.208 629.250 C 481.496 621.601, 481.542 621.480, 484.728 620 C 486.949 618.968, 487.963 617.798, 487.978 616.250 C 488.001 613.876, 486.497 613.397, 484 614.984 M 534.198 615.673 C 527.181 619.131, 525.998 628.927, 531.954 634.250 C 536.113 637.966, 543.551 638.150, 547.635 634.637 C 550.367 632.288, 550.370 632.268, 548.265 631.142 C 546.602 630.252, 545.541 630.350, 543.324 631.600 C 539.743 633.618, 535.401 632.185, 534.010 628.527 C 531.547 622.049, 539.107 616.072, 544.075 620.568 C 545.512 621.868, 546.155 621.920, 547.834 620.872 C 550.501 619.206, 549.163 616.601, 544.872 615.105 C 540.588 613.612, 538.113 613.744, 534.198 615.673 M 558.315 615.464 C 551.306 618.512, 549.997 628.927, 555.954 634.250 C 558.485 636.512, 559.966 637, 564.293 637 C 567.500 637, 570.448 636.375, 571.841 635.399 C 573.993 633.892, 574.029 633.689, 572.453 631.948 C 570.912 630.245, 570.590 630.222, 568.397 631.660 C 564.833 633.995, 558 631.838, 558 628.378 C 558 627.316, 559.947 627, 566.500 627 L 575 627 575 624.223 C 575 620.731, 572.723 617.425, 568.989 615.494 C 565.444 613.661, 562.479 613.652, 558.315 615.464 M 582.400 615.428 C 580.694 616.170, 579.007 617.539, 578.650 618.471 C 576.782 623.337, 579.093 626.337, 585.886 627.863 C 591.207 629.059, 593.131 630.649, 590.992 632.083 C 589.503 633.080, 583.947 632.783, 580.879 631.541 C 579.829 631.116, 579.017 631.512, 578.575 632.666 C 577.530 635.389, 580.650 637, 586.969 637 C 594.071 637, 597 635.121, 597 630.566 C 597 626.559, 595.762 625.406, 590.090 624.132 C 585.181 623.029, 583.434 621.725, 584.517 619.972 C 585.002 619.188, 586.965 618.934, 590.171 619.242 C 594.189 619.628, 595.259 619.386, 596.050 617.907 C 596.874 616.368, 596.459 615.944, 593.259 615.055 C 588.388 613.702, 586.190 613.778, 582.400 615.428 M 659.086 614.926 C 658.308 615.418, 656.171 615.577, 654.336 615.280 L 651 614.738 651 625.869 L 651 637 653.500 637 C 655.921 637, 656 636.785, 656 630.223 C 656 622.519, 657.725 619, 661.500 619 C 665.275 619, 667 622.519, 667 630.223 C 667 636.785, 667.079 637, 669.500 637 C 671.921 637, 672 636.785, 672 630.223 C 672 622.588, 673.727 619, 677.402 619 C 681.485 619, 683 621.930, 683 629.829 C 683 636.811, 683.066 637, 685.500 637 C 687.969 637, 688 636.895, 688 628.582 C 688 618.576, 687.628 617.376, 683.928 615.463 C 680.343 613.609, 677.258 613.617, 673.668 615.489 C 671.169 616.793, 670.499 616.792, 667.968 615.483 C 664.740 613.814, 661.194 613.592, 659.086 614.926 M 728 615.752 C 725.459 617.021, 724.115 618.613, 723.095 621.564 C 721.344 626.627, 722.198 630.352, 725.974 634.128 C 728.422 636.575, 729.638 637, 734.201 637 C 737.492 637, 740.436 636.383, 741.841 635.399 C 743.993 633.892, 744.029 633.689, 742.453 631.948 C 740.912 630.245, 740.590 630.222, 738.397 631.660 C 734.833 633.995, 728 631.838, 728 628.378 C 728 627.316, 729.947 627, 736.500 627 L 745 627 745 624.223 C 745 620.731, 742.723 617.425, 738.989 615.494 C 735.212 613.541, 732.288 613.610, 728 615.752 M 388.065 626.047 C 390.779 632.188, 393 637.357, 393 637.535 C 393 637.712, 392.269 638.588, 391.376 639.481 C 390.283 640.574, 388.854 640.907, 387.003 640.501 C 384.991 640.059, 384.085 640.337, 383.624 641.539 C 383.277 642.442, 383.247 643.590, 383.556 644.090 C 384.392 645.443, 392.363 645.191, 394.290 643.750 C 395.210 643.063, 398.637 636.313, 401.907 628.750 L 407.852 615 405.085 615 C 402.592 615, 402.037 615.699, 399.479 622.052 C 397.918 625.931, 396.330 629.296, 395.950 629.531 C 395.571 629.765, 393.898 626.704, 392.231 622.728 C 389.499 616.210, 388.903 615.470, 386.165 615.191 L 383.129 614.883 388.065 626.047 M 491.352 618.250 C 492.110 620.038, 494.213 625.011, 496.025 629.301 C 499.171 636.748, 499.456 637.089, 502.301 636.801 C 505.017 636.527, 505.619 635.717, 509.098 627.672 C 514.581 614.990, 514.579 615, 511.702 615 C 509.632 615, 508.781 616.121, 505.980 622.545 C 504.171 626.695, 502.380 629.733, 502.001 629.295 C 501.622 628.858, 500.049 625.462, 498.506 621.750 C 495.967 615.642, 495.428 615, 492.837 615 C 489.990 615, 489.981 615.019, 491.352 618.250 M 518 626 L 518 637 520.500 637 L 523 637 523 626 L 523 615 520.500 615 L 518 615 518 626 M 639 626 L 639 637 641.500 637 L 644 637 644 626 L 644 615 641.500 615 L 639 615 639 626 M 695 626 L 695 637 697.500 637 L 700 637 700 626 L 700 615 697.500 615 L 695 615 695 626 M 319.655 620.829 C 318.745 621.835, 318 622.960, 318 623.329 C 318 623.698, 320.700 624, 324 624 C 330.194 624, 331.131 623.274, 328.429 620.571 C 326.307 618.450, 321.685 618.585, 319.655 620.829 M 363 621 C 358.842 625.158, 361.763 631, 368 631 C 372.104 631, 375 628.425, 375 624.777 C 375 622.027, 371.333 619, 368 619 C 366.333 619, 364.111 619.889, 363 621 M 454.571 620.571 C 451.869 623.274, 452.806 624, 459 624 C 465.336 624, 466.148 623.349, 463.171 620.655 C 460.861 618.565, 456.620 618.523, 454.571 620.571 M 559.200 620.200 C 556.501 622.899, 557.891 624, 564 624 C 570.336 624, 571.148 623.349, 568.171 620.655 C 566.040 618.726, 560.933 618.467, 559.200 620.200 M 729.750 620.080 C 728.788 620.641, 728 621.752, 728 622.550 C 728 623.656, 729.425 624, 734 624 C 740.336 624, 741.148 623.349, 738.171 620.655 C 736.121 618.799, 732.387 618.544, 729.750 620.080 M 755.655 620.829 C 753.957 622.705, 753.456 627.640, 754.765 629.600 C 755.652 630.929, 759.439 633, 760.980 633 C 763.048 633, 767 628.107, 767 625.545 C 767 620.029, 759.282 616.821, 755.655 620.829" stroke="none" fill="#f8f7f7" fill-rule="evenodd"/>
</svg>